<svg width="466" height="242" viewBox="0 0 466 242" fill="none" xmlns="http://www.w3.org/2000/svg">
<g opacity="0.7">
<path fill-rule="evenodd" clip-rule="evenodd" d="M167.831 225.259C166.784 231.048 163.543 236.102 158.703 239.491C153.864 242.879 148.005 244.198 142.207 243.201L121.048 239.566L110.935 237.827L109.11 247.925L105.29 269.05C104.244 274.839 101.001 279.894 96.1617 283.283C91.3223 286.672 85.4645 287.989 79.6651 286.993C73.8688 285.996 68.8253 282.806 65.4654 278.007C62.1061 273.21 60.8325 267.378 61.8776 261.59L71.1137 210.513L71.1653 210.227L71.2013 209.939C71.2583 209.468 71.3201 209.057 71.3869 208.684C72.4334 202.895 75.6759 197.841 80.5186 194.45L80.571 194.413L80.5811 194.406C85.4213 191.017 91.2791 189.699 97.0791 190.696C97.4524 190.76 97.8563 190.843 98.3142 190.949L98.5995 191.015L98.8878 191.064L150.044 199.855C155.842 200.852 160.885 204.044 164.245 208.842C167.604 213.64 168.878 219.47 167.831 225.259Z" stroke="#8779FF" stroke-width="0.809309"/>
<path fill-rule="evenodd" clip-rule="evenodd" d="M138.929 161.392C139.975 155.602 143.216 150.548 148.056 147.159C152.896 143.771 158.754 142.453 164.553 143.449L185.711 147.085L195.824 148.824L197.65 138.725L201.469 117.6C202.515 111.811 205.759 106.756 210.598 103.367C215.437 99.9787 221.295 98.6611 227.095 99.6571C232.891 100.654 237.934 103.844 241.294 108.643C244.654 113.44 245.927 119.272 244.882 125.06L235.646 176.138L235.594 176.423L235.558 176.712C235.501 177.182 235.44 177.593 235.373 177.967C234.326 183.755 231.084 188.809 226.241 192.2L226.189 192.237L226.179 192.244C221.338 195.633 215.481 196.951 209.681 195.954C209.307 195.89 208.903 195.807 208.445 195.701L208.16 195.635L207.872 195.586L156.715 186.795C150.918 185.798 145.874 182.606 142.515 177.809C139.155 173.01 137.881 167.18 138.929 161.392Z" stroke="#8779FF" stroke-width="0.809309"/>
<path fill-rule="evenodd" clip-rule="evenodd" d="M365.389 86.9269C364.342 92.7166 361.102 97.7699 356.261 101.159C351.422 104.548 345.563 105.866 339.765 104.869L318.607 101.234L308.494 99.4949L306.668 109.593L302.848 130.718C301.803 136.507 298.559 141.563 293.72 144.951C288.881 148.34 283.023 149.657 277.223 148.661C271.427 147.664 266.384 144.474 263.024 139.676C259.664 134.878 258.391 129.047 259.436 123.258L268.672 72.1808L268.724 71.8952L268.759 71.6068C268.816 71.1366 268.878 70.7253 268.945 70.3517C269.992 64.5635 273.234 59.509 278.077 56.1181L278.129 56.0814L278.139 56.0743C282.979 52.6852 288.837 51.3676 294.637 52.3644C295.011 52.4285 295.415 52.5112 295.872 52.6171L296.158 52.6831L296.446 52.7319L347.603 61.5231C353.4 62.5202 358.444 65.7121 361.803 70.5097C365.163 75.3081 366.437 81.138 365.389 86.9269Z" stroke="#8779FF" stroke-width="0.809309"/>
<path fill-rule="evenodd" clip-rule="evenodd" d="M336.487 23.0597C337.534 17.27 340.775 12.2166 345.615 8.82752C350.454 5.43898 356.313 4.12076 362.111 5.11731L383.27 8.75289L393.383 10.4917L395.208 0.393268L399.028 -20.7318C400.074 -26.5209 403.317 -31.576 408.156 -34.9646C412.996 -38.3531 418.854 -39.6707 424.653 -38.6748C430.449 -37.6779 435.493 -34.4874 438.853 -29.689C442.212 -24.8914 443.486 -19.06 442.44 -13.2715L433.204 37.8058L433.153 38.0914L433.117 38.3797C433.06 38.85 432.998 39.2612 432.931 39.6348C431.885 45.4231 428.642 50.4776 423.799 53.8685L423.747 53.9051L423.737 53.9122C418.897 57.3014 413.039 58.619 407.239 57.6222C406.866 57.558 406.462 57.4754 406.004 57.3694L405.719 57.3035L405.43 57.2546L354.274 48.4635C348.476 47.4663 343.433 44.2745 340.073 39.4769C336.714 34.6785 335.44 28.8485 336.487 23.0597Z" stroke="#8779FF" stroke-width="0.809309"/>
<path fill-rule="evenodd" clip-rule="evenodd" d="M282.336 244.868C281.289 250.658 278.048 255.711 273.208 259.1C268.369 262.489 262.51 263.807 256.712 262.81L235.553 259.175L225.44 257.436L223.615 267.534L219.795 288.659C218.749 294.449 215.506 299.504 210.667 302.892C205.827 306.281 199.969 307.598 194.17 306.602C188.374 305.605 183.33 302.415 179.97 297.617C176.611 292.819 175.337 286.988 176.382 281.199L185.619 230.122L185.67 229.836L185.706 229.548C185.763 229.078 185.825 228.666 185.892 228.293C186.938 222.505 190.181 217.45 195.023 214.059L195.076 214.022L195.086 214.015C199.926 210.626 205.784 209.309 211.584 210.305C211.957 210.37 212.361 210.452 212.819 210.558L213.104 210.624L213.393 210.673L264.549 219.464C270.347 220.461 275.39 223.653 278.749 228.451C282.109 233.249 283.383 239.079 282.336 244.868Z" stroke="#8779FF" stroke-width="0.809309"/>
<path fill-rule="evenodd" clip-rule="evenodd" d="M253.434 181.001C254.48 175.211 257.721 170.158 262.561 166.769C267.401 163.38 273.259 162.062 279.058 163.058L300.216 166.694L310.329 168.433L312.155 158.334L315.974 137.209C317.02 131.42 320.264 126.365 325.103 122.976C329.942 119.588 335.8 118.27 341.6 119.266C347.396 120.263 352.439 123.454 355.799 128.252C359.159 133.05 360.432 138.881 359.387 144.669L350.151 195.747L350.099 196.032L350.063 196.321C350.006 196.791 349.945 197.202 349.878 197.576C348.831 203.364 345.589 208.419 340.746 211.809L340.694 211.846L340.684 211.853C335.843 215.242 329.986 216.56 324.186 215.563C323.812 215.499 323.408 215.416 322.95 215.31L322.665 215.244L322.377 215.196L271.22 206.404C265.423 205.407 260.379 202.215 257.02 197.418C253.66 192.619 252.386 186.79 253.434 181.001Z" stroke="#8779FF" stroke-width="0.809309"/>
<path fill-rule="evenodd" clip-rule="evenodd" d="M479.894 106.536C478.847 112.326 475.607 117.379 470.766 120.768C465.927 124.157 460.068 125.475 454.27 124.478L433.112 120.843L422.999 119.104L421.173 129.202L417.353 150.328C416.308 156.117 413.064 161.172 408.225 164.56C403.386 167.949 397.528 169.266 391.728 168.271C385.932 167.274 380.889 164.083 377.529 159.285C374.169 154.487 372.896 148.656 373.941 142.867L383.177 91.79L383.229 91.5044L383.264 91.216C383.321 90.7458 383.383 90.3345 383.45 89.961C384.497 84.1727 387.739 79.1182 392.582 75.7273L392.634 75.6906L392.644 75.6835C397.484 72.2944 403.342 70.9768 409.142 71.9736C409.516 72.0377 409.92 72.1204 410.377 72.2263L410.663 72.2923L410.951 72.3411L462.108 81.1323C467.905 82.1294 472.949 85.3213 476.308 90.1189C479.668 94.9173 480.942 100.747 479.894 106.536Z" stroke="#8779FF" stroke-width="0.809309"/>
<path fill-rule="evenodd" clip-rule="evenodd" d="M450.992 42.6689C452.039 36.8792 455.279 31.8258 460.12 28.4367C464.959 25.0482 470.818 23.73 476.616 24.7265L497.774 28.3621L507.887 30.1009L509.713 20.0025L513.533 -1.12263C514.579 -6.91173 517.822 -11.9668 522.661 -15.3554C527.501 -18.7439 533.358 -20.0615 539.158 -19.0656C544.954 -18.0687 549.998 -14.8782 553.357 -10.0798C556.717 -5.28225 557.99 0.549145 556.945 6.33766L547.709 57.415L547.658 57.7006L547.622 57.9889C547.565 58.4592 547.503 58.8704 547.436 59.244C546.389 65.0323 543.147 70.0868 538.304 73.4777L538.252 73.5143L538.242 73.5214C533.402 76.9106 527.544 78.2282 521.744 77.2314C521.37 77.1672 520.967 77.0846 520.509 76.9786L520.223 76.9127L519.935 76.8638L468.779 68.0727C462.981 67.0755 457.938 63.8837 454.578 59.0861C451.218 54.2877 449.945 48.4577 450.992 42.6689Z" stroke="#8779FF" stroke-width="0.809309"/>
<path fill-rule="evenodd" clip-rule="evenodd" d="M236.179 300.279C237.226 294.489 240.466 289.436 245.307 286.047C250.146 282.658 256.005 281.34 261.803 282.337L282.961 285.972L293.074 287.711L294.9 277.613L298.72 256.487C299.765 250.698 303.009 245.643 307.848 242.255C312.687 238.866 318.545 237.549 324.345 238.545C330.141 239.541 335.184 242.732 338.544 247.53C341.904 252.328 343.177 258.159 342.132 263.948L332.896 315.025L332.844 315.311L332.809 315.599C332.752 316.069 332.69 316.481 332.623 316.854C331.576 322.642 328.334 327.697 323.491 331.088L323.439 331.124L323.429 331.132C318.589 334.521 312.731 335.838 306.931 334.841C306.557 334.777 306.153 334.695 305.696 334.589L305.41 334.523L305.122 334.474L253.965 325.683C248.168 324.686 243.124 321.494 239.765 316.696C236.405 311.898 235.131 306.068 236.179 300.279Z" stroke="#8779FF" stroke-width="0.809309"/>
<path fill-rule="evenodd" clip-rule="evenodd" d="M462.639 225.814C461.593 231.604 458.352 236.657 453.512 240.047C448.672 243.435 442.814 244.753 437.015 243.757L415.857 240.121L405.744 238.382L403.918 248.481L400.099 269.606C399.053 275.395 395.809 280.45 390.97 283.839C386.131 287.227 380.273 288.545 374.473 287.549C368.677 286.552 363.634 283.361 360.274 278.563C356.914 273.765 355.641 267.934 356.686 262.146L365.922 211.068L365.974 210.783L366.01 210.494C366.067 210.024 366.128 209.613 366.195 209.239C367.242 203.451 370.484 198.396 375.327 195.006L375.379 194.969L375.389 194.962C380.23 191.573 386.087 190.255 391.887 191.252C392.261 191.316 392.665 191.399 393.123 191.505L393.408 191.571L393.696 191.619L444.853 200.411C450.65 201.408 455.694 204.6 459.053 209.397C462.413 214.196 463.687 220.026 462.639 225.814Z" stroke="#8779FF" stroke-width="0.809309"/>
<path fill-rule="evenodd" clip-rule="evenodd" d="M433.737 161.947C434.784 156.157 438.025 151.104 442.865 147.715C447.704 144.326 453.563 143.008 459.362 144.005L480.52 147.64L490.633 149.379L492.459 139.281L496.278 118.156C497.324 112.367 500.567 107.311 505.407 103.923C510.246 100.534 516.104 99.2167 521.903 100.213C527.699 101.21 532.743 104.4 536.103 109.198C539.462 113.996 540.736 119.827 539.691 125.616L530.455 176.693L530.403 176.979L530.367 177.267C530.31 177.737 530.248 178.149 530.181 178.522C529.135 184.311 525.892 189.365 521.05 192.756L520.997 192.793L520.987 192.8C516.147 196.189 510.289 197.506 504.489 196.51C504.116 196.445 503.712 196.363 503.254 196.257L502.969 196.191L502.68 196.142L451.524 187.351C445.726 186.354 440.683 183.162 437.324 178.364C433.964 173.566 432.69 167.736 433.737 161.947Z" stroke="#8779FF" stroke-width="0.809309"/>
<path fill-rule="evenodd" clip-rule="evenodd" d="M577.144 245.424C576.097 251.213 572.857 256.267 568.016 259.656C563.177 263.044 557.318 264.363 551.52 263.366L530.362 259.73L520.249 257.992L518.423 268.09L514.603 289.215C513.557 295.004 510.314 300.059 505.475 303.448C500.635 306.836 494.778 308.154 488.978 307.158C483.182 306.161 478.138 302.971 474.779 298.172C471.419 293.375 470.146 287.543 471.191 281.755L480.427 230.678L480.478 230.392L480.514 230.104C480.571 229.633 480.633 229.222 480.7 228.849C481.746 223.06 484.989 218.006 489.832 214.615L489.884 214.578L489.894 214.571C494.734 211.182 500.592 209.864 506.392 210.861C506.766 210.925 507.169 211.008 507.627 211.114L507.913 211.18L508.201 211.229L559.357 220.02C565.155 221.017 570.198 224.209 573.558 229.006C576.918 233.805 578.191 239.635 577.144 245.424Z" stroke="#8779FF" stroke-width="0.809309"/>
</g>
</svg>
