<svg width="188" height="166" viewBox="0 0 188 166" fill="none" xmlns="http://www.w3.org/2000/svg">
<path d="M90.6208 143.006H19.1518C13.9921 143.006 9.80943 138.823 9.80943 133.664V128.058L9.80941 109.607C9.80941 104.448 13.9921 100.265 19.1518 100.265H25.6914C30.8511 100.265 35.0338 104.448 35.0338 109.607L35.0338 115.913C35.0338 121.073 30.8511 125.256 25.6914 125.256H9.80941C4.64977 125.256 0.467056 121.073 0.467055 115.913L0.467044 69.6687C0.467043 64.509 4.64976 60.3263 9.8094 60.3263H75.673" stroke="white" stroke-width="0.934236" stroke-linejoin="bevel" stroke-dasharray="2.8 2.8"/>
<path d="M176.496 8.26123H58.74C57.2452 8.26123 56.0334 9.24513 56.0334 10.4588V96.1743C56.0334 97.388 57.2452 98.3718 58.74 98.3718H176.496C177.991 98.3718 179.202 97.388 179.202 96.1743V10.4588C179.202 9.24513 177.991 8.26123 176.496 8.26123Z" fill="#F9E0C0" stroke="#260071" stroke-width="0.266599" stroke-miterlimit="10"/>
<path d="M107.22 8.19756V37.6897H107.227C107.453 37.6897 107.57 37.8692 107.69 38.055C107.816 38.2502 107.948 38.4548 108.219 38.4548C108.489 38.4548 108.618 38.2502 108.747 38.055C108.87 37.8661 108.984 37.6897 109.21 37.6897C109.437 37.6897 109.554 37.8661 109.673 38.055C109.799 38.2502 109.931 38.4548 110.202 38.4548C110.473 38.4548 110.602 38.2502 110.731 38.055C110.854 37.8661 110.967 37.6897 111.194 37.6897C111.421 37.6897 111.537 37.8661 111.657 38.055C111.783 38.2502 111.915 38.4548 112.186 38.4548C112.456 38.4548 112.586 38.2502 112.715 38.055C112.837 37.8661 112.951 37.6897 113.177 37.6897C113.404 37.6897 113.517 37.8661 113.64 38.055C113.766 38.2502 113.898 38.4548 114.169 38.4548C114.44 38.4548 114.569 38.2502 114.698 38.055C114.821 37.8661 114.934 37.6897 115.161 37.6897C115.388 37.6897 115.504 37.8661 115.624 38.055C115.75 38.2502 115.882 38.4548 116.153 38.4548C116.424 38.4548 116.553 38.2502 116.682 38.055C116.805 37.8661 116.918 37.6897 117.145 37.6897C117.371 37.6897 117.488 37.8661 117.607 38.055C117.733 38.2502 117.866 38.4548 118.136 38.4548C118.407 38.4548 118.536 38.2502 118.665 38.055C118.788 37.8661 118.901 37.6897 119.128 37.6897C119.355 37.6897 119.471 37.8661 119.591 38.055C119.717 38.2502 119.849 38.4548 120.12 38.4548C120.391 38.4548 120.52 38.2502 120.649 38.055C120.772 37.8661 120.885 37.6897 121.112 37.6897C121.338 37.6897 121.455 37.8661 121.575 38.055C121.7 38.2502 121.833 38.4548 122.104 38.4548C122.374 38.4548 122.503 38.2502 122.632 38.055C122.755 37.8661 122.869 37.6897 123.095 37.6897C123.322 37.6897 123.438 37.8661 123.558 38.055C123.684 38.2502 123.816 38.4548 124.087 38.4548C124.358 38.4548 124.487 38.2502 124.616 38.055C124.739 37.8661 124.852 37.6897 125.079 37.6897C125.306 37.6897 125.422 37.8661 125.542 38.055C125.668 38.2502 125.8 38.4548 126.071 38.4548C126.341 38.4548 126.471 38.2502 126.6 38.055C126.722 37.8661 126.836 37.6897 127.062 37.6897C127.289 37.6897 127.406 37.8661 127.525 38.055C127.651 38.2502 127.783 38.4548 128.054 38.4548C128.325 38.4548 128.454 38.2502 128.583 38.055C128.706 37.8661 128.819 37.6897 129.046 37.6897V8.19441H107.233L107.22 8.19756Z" fill="#F1E6DB" stroke="#260071" stroke-width="0.266599" stroke-miterlimit="10"/>
<path d="M173.337 58.3821H129.082V91.9736H173.337V58.3821Z" fill="#F1E6DB" stroke="#260071" stroke-width="0.266599" stroke-miterlimit="10"/>
<path d="M157.231 78.866H133.712C133.216 78.866 132.814 79.2677 132.814 79.7633C132.814 80.2589 133.216 80.6606 133.712 80.6606H157.231C157.727 80.6606 158.128 80.2589 158.128 79.7633C158.128 79.2677 157.727 78.866 157.231 78.866Z" fill="#5C5147"/>
<path d="M147.417 82.6348H133.771C133.276 82.6348 132.874 83.0366 132.874 83.5322C132.874 84.0277 133.276 84.4295 133.771 84.4295H147.417C147.913 84.4295 148.314 84.0277 148.314 83.5322C148.314 83.0366 147.913 82.6348 147.417 82.6348Z" fill="#FAFAFD"/>
<path d="M151.368 86.2273H133.771C133.276 86.2273 132.874 86.629 132.874 87.1246C132.874 87.6202 133.276 88.0219 133.771 88.0219H151.368C151.864 88.0219 152.266 87.6202 152.266 87.1246C152.266 86.629 151.864 86.2273 151.368 86.2273Z" fill="#FAFAFD"/>
<path d="M74.7661 80.6165C74.8511 79.313 74.7094 77.9151 74.7598 76.6022C74.6779 76.451 74.5677 76.3156 74.382 76.3093H70.5187L69.9111 77.9592L71.2618 78.1512L68.5603 82.0113L69.1397 79.1178L67.789 79.5051L68.6579 76.3093H64.6656C64.4893 76.3282 64.3634 76.451 64.2878 76.6022C64.3319 77.9056 64.1996 79.2847 64.2815 80.5819C64.4106 82.7103 65.8684 84.5333 67.8614 85.2133C67.959 85.248 68.4564 85.355 68.4722 85.4085V89.2466H66.5453C66.0006 89.2466 65.3803 89.6181 65.0938 90.0747C64.8734 90.4241 64.5901 91.2207 65.0781 91.4506L73.8845 91.46C74.2781 91.3656 74.256 91.0098 74.1867 90.6886C74.0167 89.9141 73.3933 89.3694 72.6093 89.2812H70.5313L70.5628 85.3928C72.8329 84.952 74.6181 82.9401 74.7692 80.6197L74.7661 80.6165Z" fill="#9D836D"/>
<path d="M93.6949 89.571H80.4712C79.9495 89.571 79.5266 89.9939 79.5266 90.5156C79.5266 91.0372 79.9495 91.4601 80.4712 91.4601H93.6949C94.2166 91.4601 94.6395 91.0372 94.6395 90.5156C94.6395 89.9939 94.2166 89.571 93.6949 89.571Z" fill="#9D836D"/>
<path d="M86.0093 79.9176L83.1442 77.1091L80.3357 79.9743" stroke="#9D836D" stroke-width="0.266599" stroke-linecap="round" stroke-linejoin="round"/>
<path d="M83.1536 77.9467L83.248 87.3985" stroke="#9D836D" stroke-width="0.266599" stroke-linecap="round" stroke-linejoin="round"/>
<path d="M93.8304 79.9176L90.9652 77.1091L88.1567 79.9743" stroke="#9D836D" stroke-width="0.266599" stroke-linecap="round" stroke-linejoin="round"/>
<path d="M90.9746 77.9466L91.0691 87.3985" stroke="#9D836D" stroke-width="0.266599" stroke-linecap="round" stroke-linejoin="round"/>
<path d="M64.8482 68.7309L63.1763 65.8784C63.0661 65.6485 63.0567 65.4533 63.1574 65.2141L63.9792 63.7752L63.1228 63.262L66.0226 63.2085L67.4111 65.743L66.5106 65.255L65.0591 67.758C64.9899 67.8966 64.845 68.2807 64.845 68.4224V68.7309H64.8482Z" fill="#006B6B"/>
<path d="M71.312 67.1031H74.3188C74.5486 67.0779 74.7627 67.0307 74.9705 66.93C75.002 66.9142 75.1815 66.7946 75.1909 66.804L73.5128 69.7258C73.4057 69.8833 73.1444 70.047 72.9523 70.047H71.312V71.0388L69.8164 68.5703L71.312 66.0925V67.1031Z" fill="#006B6B"/>
<path d="M73.0752 60.5259L73.9442 60.0221L73.9536 60.0505L72.5494 62.563L69.6654 62.5158L70.5249 62.0246V61.9837L69.0136 59.3704C68.8027 59.0713 68.6704 59.0115 68.3776 58.8257C68.3587 58.8131 68.343 58.8257 68.3524 58.7848C68.3808 58.7848 68.406 58.8068 68.4374 58.8037C69.5457 58.7438 70.676 58.7879 71.7875 58.8068C71.9669 58.8414 72.1181 58.9328 72.2283 59.0776L73.0752 60.5259Z" fill="#006B6B"/>
<path d="M69.0105 67.0842V70.0154L68.9444 70.0438C68.1635 70.006 67.3418 70.091 66.5641 70.0438C65.6416 69.9902 64.9993 69.2251 65.2165 68.2995C65.3204 67.8524 65.6227 67.484 65.821 67.081H69.0105V67.0842Z" fill="#006B6B"/>
<path d="M65.1692 61.7222L65.1786 61.6498L66.4286 59.5057C66.7938 58.9484 67.5148 58.7657 68.1225 59.0208C68.7302 59.2758 68.9537 59.9212 69.2875 60.4439L67.7069 63.18L65.1692 61.719V61.7222Z" fill="#006B6B"/>
<path d="M71.7087 64.0333L74.2464 62.5913L75.4775 64.6945C75.7672 65.1951 75.7042 65.7901 75.3516 66.2404C74.8258 66.9142 74.0481 66.7851 73.283 66.7756L71.7119 64.0333H71.7087Z" fill="#006B6B"/>
<path d="M134.486 64.2016V70.0482H133.462V64.2016H134.486ZM135.773 68.0327H134.238V67.1209H135.558C135.909 67.1209 136.176 67.0329 136.357 66.857C136.544 66.6757 136.637 66.4251 136.637 66.1052C136.637 65.7852 136.544 65.54 136.357 65.3694C136.176 65.1987 135.915 65.1134 135.574 65.1134H134.142V64.2016H135.773C136.168 64.2016 136.509 64.2816 136.797 64.4416C137.085 64.6015 137.309 64.8255 137.469 65.1134C137.629 65.396 137.709 65.7293 137.709 66.1132C137.709 66.4864 137.629 66.8197 137.469 67.1129C137.309 67.4008 137.085 67.6274 136.797 67.7927C136.509 67.9527 136.168 68.0327 135.773 68.0327ZM138.754 70.0482H137.698L139.809 64.2016H140.857L142.969 70.0482H141.889L141.417 68.6965H139.233L138.754 70.0482ZM140.201 65.9452L139.529 67.8327H141.121L140.449 65.9452C140.428 65.8652 140.404 65.7852 140.377 65.7053C140.351 65.6253 140.335 65.556 140.329 65.4973C140.319 65.5506 140.3 65.62 140.273 65.7053C140.252 65.7852 140.228 65.8652 140.201 65.9452ZM144.725 70.0482H143.702V64.2016H145.933C146.594 64.2016 147.109 64.3616 147.477 64.6815C147.85 65.0014 148.037 65.4493 148.037 66.0252C148.037 66.4144 147.946 66.7477 147.765 67.0249C147.589 67.2969 147.327 67.5048 146.981 67.6488L148.093 70.0482H146.973L145.981 67.8647H144.725V70.0482ZM144.725 65.1134V66.9609H145.933C146.258 66.9609 146.512 66.8783 146.693 66.713C146.874 66.5477 146.965 66.3184 146.965 66.0252C146.965 65.7319 146.874 65.508 146.693 65.3534C146.512 65.1934 146.258 65.1134 145.933 65.1134H144.725ZM150.083 64.2016V70.0482H149.06V64.2016H150.083ZM151.043 65.8332C151.043 65.492 151.131 65.1907 151.307 64.9295C151.483 64.6682 151.726 64.4656 152.035 64.3216C152.35 64.1723 152.712 64.0977 153.123 64.0977C153.518 64.0977 153.859 64.167 154.147 64.3056C154.44 64.4443 154.667 64.6415 154.827 64.8975C154.992 65.1534 155.08 65.4573 155.09 65.8092H154.067C154.056 65.5586 153.965 65.364 153.795 65.2254C153.624 65.0814 153.395 65.0094 153.107 65.0094C152.792 65.0094 152.539 65.0814 152.347 65.2254C152.161 65.364 152.067 65.556 152.067 65.8012C152.067 66.0092 152.123 66.1745 152.235 66.2971C152.352 66.4144 152.534 66.5024 152.779 66.5611L153.699 66.769C154.2 66.8756 154.573 67.0596 154.819 67.3209C155.064 67.5768 155.186 67.9234 155.186 68.3606C155.186 68.7178 155.098 69.0324 154.923 69.3044C154.747 69.5763 154.496 69.7869 154.171 69.9362C153.851 70.0802 153.475 70.1521 153.043 70.1521C152.632 70.1521 152.273 70.0828 151.963 69.9442C151.654 69.8002 151.411 69.6003 151.235 69.3443C151.065 69.0884 150.974 68.7872 150.964 68.4406H151.987C151.993 68.6858 152.089 68.8805 152.275 69.0244C152.467 69.1631 152.726 69.2324 153.051 69.2324C153.392 69.2324 153.661 69.1631 153.859 69.0244C154.061 68.8805 154.163 68.6912 154.163 68.4566C154.163 68.254 154.109 68.094 154.003 67.9767C153.896 67.8541 153.723 67.7687 153.483 67.7208L152.555 67.5128C152.059 67.4062 151.683 67.2142 151.427 66.937C151.171 66.6544 151.043 66.2865 151.043 65.8332Z" fill="#260071"/>
<rect x="145.4" y="16.3277" width="28.1887" height="16.9132" rx="2.81887" fill="#EB3323"/>
<path d="M151.841 27.2752V25.7478H150.543V27.2752H149.55L150.754 28.4795C150.871 28.5954 151.028 28.6604 151.192 28.6604C151.356 28.6604 151.513 28.5954 151.63 28.4795L152.834 27.2752H151.841ZM148.902 26.626V23.3422L147.698 24.5465C147.64 24.6036 147.593 24.6717 147.562 24.7468C147.53 24.822 147.514 24.9026 147.514 24.9841C147.514 25.0655 147.53 25.1462 147.562 25.2213C147.593 25.2965 147.64 25.3646 147.698 25.4216L148.902 26.626ZM150.538 22.694V24.2204H151.841V22.694H152.834L151.627 21.4877C151.51 21.3718 151.353 21.3067 151.189 21.3067C151.025 21.3067 150.868 21.3718 150.751 21.4877L149.55 22.694H150.538ZM154.687 24.5465L153.483 23.3422V26.626L154.687 25.4216C154.803 25.3055 154.868 25.1481 154.868 24.9841C154.868 24.82 154.803 24.6627 154.687 24.5465Z" fill="white"/>
<path d="M160.286 21.3077V24.4842H158.895L158.077 22.0622H158.03V24.4842H157.188V22.1328H156.738V21.3077H158.334C158.407 21.3071 158.478 21.3293 158.538 21.3711C158.597 21.4113 158.64 21.47 158.661 21.5378L159.396 23.7297H159.443V21.3077H160.286Z" fill="white"/>
<path d="M161.05 23.7215C160.901 23.4693 160.824 23.1811 160.828 22.8882C160.825 22.5977 160.902 22.3119 161.051 22.0622C161.196 21.8164 161.405 21.6135 161.654 21.4743C161.914 21.3341 162.205 21.2607 162.5 21.2607C162.795 21.2607 163.086 21.3341 163.346 21.4743C163.595 21.6128 163.802 21.8159 163.945 22.0622C164.091 22.3128 164.167 22.5982 164.164 22.8882C164.167 23.1806 164.092 23.4685 163.945 23.7215C163.802 23.9687 163.595 24.1731 163.346 24.3134C163.087 24.4569 162.796 24.5322 162.5 24.5322C162.204 24.5322 161.913 24.4569 161.654 24.3134C161.404 24.1725 161.196 23.9683 161.05 23.7215ZM163.242 22.8882C163.244 22.7891 163.226 22.6905 163.189 22.5984C163.152 22.5063 163.097 22.4227 163.027 22.3525C162.96 22.2817 162.878 22.2257 162.788 22.188C162.698 22.1503 162.6 22.1319 162.503 22.1337C162.403 22.1315 162.305 22.1493 162.213 22.1862C162.121 22.2231 162.037 22.2783 161.967 22.3484C161.895 22.4184 161.839 22.5025 161.801 22.5954C161.763 22.6883 161.745 22.788 161.748 22.8882C161.746 22.9896 161.764 23.0904 161.802 23.1845C161.839 23.2787 161.896 23.3643 161.967 23.4362C162.036 23.5085 162.119 23.5656 162.211 23.6038C162.304 23.642 162.403 23.6605 162.503 23.6581C162.601 23.6599 162.698 23.6411 162.788 23.6029C162.879 23.5646 162.96 23.5079 163.027 23.4362C163.098 23.3638 163.153 23.278 163.19 23.1839C163.227 23.0898 163.244 22.9893 163.242 22.8882Z" fill="white"/>
<path d="M165.348 24.4842L164.201 21.3077H165.171L165.988 23.6745H166.037L166.86 21.3077H167.805L166.643 24.4842H165.348Z" fill="white"/>
<path d="M170.048 24.4842L169.85 23.9045H168.563L168.358 24.4842H167.422L168.661 21.3077H169.796L171.023 24.4842H170.048ZM168.821 23.1899H169.608L169.243 22.1256H169.195L168.821 23.1899Z" fill="white"/>
<path d="M160.081 26.537C160.087 26.68 160.062 26.8226 160.006 26.9545C159.95 27.0863 159.866 27.2042 159.759 27.2997C159.521 27.4987 159.216 27.6008 158.906 27.5859H158.088V28.6655H157.183V26.3141H156.73V25.4891H158.906C159.216 25.4737 159.521 25.5759 159.759 25.7754C159.866 25.8707 159.95 25.9884 160.006 26.1201C160.062 26.2518 160.087 26.3941 160.081 26.537ZM159.072 26.7599C159.1 26.7332 159.121 26.7014 159.136 26.6663C159.151 26.6312 159.158 26.5935 159.158 26.5554C159.158 26.5173 159.151 26.4796 159.136 26.4445C159.121 26.4094 159.1 26.3776 159.072 26.3509C159.009 26.2958 158.926 26.2673 158.842 26.2712H158.088V26.8427H158.842C158.927 26.8458 159.009 26.8162 159.072 26.7599Z" fill="white"/>
<path d="M160.586 27.9029C160.44 27.6505 160.364 27.3644 160.364 27.0732C160.364 26.782 160.44 26.4959 160.586 26.2436C160.731 25.9978 160.939 25.7949 161.189 25.6557C161.448 25.5148 161.739 25.441 162.035 25.441C162.33 25.441 162.621 25.5148 162.881 25.6557C163.132 25.7935 163.34 25.9966 163.485 26.2436C163.595 26.4303 163.666 26.6369 163.695 26.8514C163.725 27.0659 163.711 27.2841 163.655 27.4933C163.6 27.7026 163.503 27.8986 163.371 28.0702C163.239 28.2417 163.074 28.3854 162.886 28.4927C162.627 28.6362 162.336 28.7115 162.04 28.7115C161.744 28.7115 161.453 28.6362 161.194 28.4927C160.943 28.353 160.733 28.1495 160.586 27.9029ZM162.778 27.0696C162.78 26.9703 162.762 26.8716 162.725 26.7794C162.688 26.6872 162.633 26.6033 162.563 26.5329C162.495 26.4623 162.414 26.4065 162.323 26.369C162.233 26.3315 162.136 26.3132 162.038 26.3152C161.939 26.313 161.841 26.3309 161.749 26.3678C161.657 26.4047 161.573 26.4598 161.503 26.5298C161.431 26.5998 161.375 26.684 161.337 26.7769C161.3 26.8698 161.282 26.9695 161.285 27.0696C161.282 27.1716 161.3 27.2731 161.337 27.368C161.375 27.4629 161.431 27.5492 161.503 27.6217C161.572 27.6937 161.655 27.7506 161.747 27.7888C161.839 27.827 161.939 27.8456 162.038 27.8436C162.137 27.8457 162.235 27.8271 162.325 27.7889C162.416 27.7506 162.498 27.6937 162.565 27.6217C162.635 27.5486 162.691 27.4621 162.727 27.3672C162.764 27.2724 162.781 27.1712 162.778 27.0696Z" fill="white"/>
<path d="M164.002 27.6647H164.94C165.019 27.8507 165.218 27.9427 165.535 27.9427C165.666 27.9484 165.798 27.9268 165.92 27.8794C166.013 27.8374 166.059 27.7771 166.059 27.7127C166.059 27.6703 166.044 27.6293 166.019 27.5956C165.993 27.562 165.957 27.5374 165.916 27.5256C165.736 27.4683 165.549 27.4339 165.36 27.4234C164.951 27.3818 164.636 27.2707 164.415 27.0901C164.31 27.0103 164.225 26.9069 164.168 26.7883C164.11 26.6697 164.08 26.5392 164.082 26.4072C164.081 26.2669 164.116 26.1286 164.183 26.0056C164.251 25.8826 164.349 25.779 164.468 25.7048C164.724 25.5269 165.061 25.438 165.48 25.438C165.846 25.422 166.209 25.5206 166.516 25.7202C166.645 25.8074 166.753 25.9208 166.835 26.053C166.916 26.1852 166.969 26.333 166.989 26.4869H165.966C165.954 26.4449 165.932 26.406 165.904 26.3726C165.875 26.3392 165.84 26.312 165.801 26.2927C165.698 26.2444 165.585 26.2213 165.472 26.2252C165.159 26.2252 165.003 26.2968 165.003 26.4399C165.003 26.5084 165.048 26.5595 165.138 26.5912C165.291 26.6343 165.448 26.6607 165.607 26.6699C166.056 26.7129 166.397 26.8216 166.629 26.9961C166.742 27.0815 166.833 27.193 166.894 27.3211C166.955 27.4491 166.984 27.59 166.978 27.7317C166.973 27.8734 166.934 28.0117 166.864 28.135C166.794 28.2582 166.695 28.3627 166.576 28.4396C166.303 28.6209 165.946 28.7112 165.503 28.7105C165.145 28.7244 164.792 28.6272 164.491 28.4325C164.362 28.3447 164.251 28.2313 164.167 28.0992C164.083 27.9671 164.027 27.8193 164.002 27.6647Z" fill="white"/>
<path d="M170.238 26.3786H169.167V28.6656H168.261V26.3786H167.19V25.4891H170.238V26.3786Z" fill="white"/>
<ellipse cx="102.603" cy="157.648" rx="20.3901" ry="7.59632" fill="#5C14EB"/>
<ellipse cx="102.472" cy="157.825" rx="17.8608" ry="6.17409" fill="#260071"/>
<path d="M102.445 136.484C101.425 136.484 100.429 136.786 99.5813 137.352C98.7337 137.919 98.073 138.724 97.6829 139.666C97.2928 140.607 97.1907 141.644 97.3896 142.644C97.5885 143.643 98.0794 144.562 98.8002 145.283C99.521 146.004 100.439 146.494 101.439 146.693C102.439 146.892 103.475 146.79 104.417 146.4C105.359 146.01 106.164 145.349 106.73 144.502C107.297 143.654 107.599 142.657 107.599 141.638C107.598 140.272 107.054 138.961 106.088 137.995C105.121 137.029 103.811 136.485 102.445 136.484ZM102.445 143.981C101.981 143.981 101.528 143.844 101.143 143.586C100.758 143.329 100.458 142.963 100.28 142.535C100.103 142.107 100.057 141.635 100.147 141.181C100.237 140.727 100.461 140.309 100.788 139.981C101.116 139.654 101.533 139.431 101.988 139.34C102.442 139.25 102.913 139.296 103.341 139.474C103.769 139.651 104.135 139.951 104.393 140.336C104.65 140.722 104.788 141.175 104.788 141.638C104.788 142.259 104.541 142.855 104.101 143.295C103.662 143.734 103.066 143.981 102.445 143.981ZM102.445 130.861C99.5875 130.864 96.8481 132.001 94.8277 134.021C92.8073 136.041 91.6708 138.781 91.6677 141.638C91.6677 150.7 101.231 157.499 101.639 157.784C101.875 157.949 102.156 158.038 102.445 158.038C102.733 158.038 103.015 157.949 103.251 157.784C105.062 156.449 106.719 154.917 108.192 153.215C111.482 149.436 113.222 145.43 113.222 141.638C113.219 138.781 112.082 136.041 110.062 134.021C108.042 132.001 105.302 130.864 102.445 130.861ZM106.111 151.327C104.994 152.61 103.768 153.793 102.445 154.862C101.122 153.793 99.8952 152.61 98.7783 151.327C96.822 149.061 94.4791 145.54 94.4791 141.638C94.4791 139.525 95.3184 137.499 96.8122 136.005C98.3061 134.512 100.332 133.672 102.445 133.672C104.557 133.672 106.584 134.512 108.077 136.005C109.571 137.499 110.41 139.525 110.41 141.638C110.41 145.54 108.068 149.061 106.111 151.327Z" fill="#8779FF"/>
<path d="M176.285 6.07254L182.358 6.07254L182.358 0.233566" stroke="#8779FF" stroke-width="0.467118" stroke-linecap="round" stroke-linejoin="round"/>
<path d="M128.498 107.234C128.498 108.674 127.331 109.841 125.892 109.841H109.731C108.291 109.841 107.124 108.674 107.124 107.234V105.671H128.498V107.234ZM177.504 101.5C178.656 101.5 179.589 102.433 179.589 103.585C179.589 104.736 178.656 105.669 177.504 105.67H58.1194C56.9677 105.67 56.0334 104.736 56.0334 103.585C56.0335 102.433 56.9677 101.5 58.1194 101.5H177.504Z" fill="#E4DBFA"/>
<rect x="31.2969" y="110.906" width="156.485" height="6.27732" rx="2.2419" fill="#8779FF"/>
<rect x="42.228" y="44.4345" width="1.82927" height="66.5856" fill="#8779FF"/>
<rect x="21.2622" y="32.8725" width="43.8509" height="17.9048" rx="2.32786" fill="#8779FF" stroke="#260071" stroke-width="0.864743"/>
<path d="M34.4855 45.7414L28.8878 45.7524V44.6925L31.5265 42.4622C31.7989 42.2341 32.0271 42.0243 32.2111 41.8329C32.4025 41.6415 32.5533 41.4612 32.6638 41.2919C32.7742 41.1226 32.8551 40.9533 32.9067 40.784C32.9582 40.6147 32.9839 40.4307 32.9839 40.232C32.9839 39.7756 32.8662 39.4223 32.6306 39.172C32.3951 38.9218 32.0639 38.7967 31.637 38.7967C31.1953 38.7967 30.8457 38.9439 30.5881 39.2383C30.3304 39.5327 30.198 39.9375 30.1906 40.4528H28.7884C28.7958 39.8639 28.9172 39.3524 29.1527 38.9181C29.3883 38.4765 29.7195 38.1379 30.1464 37.9023C30.5733 37.6594 31.0702 37.538 31.637 37.538C32.2111 37.538 32.7042 37.6447 33.1164 37.8582C33.536 38.0643 33.8599 38.3624 34.088 38.7525C34.3162 39.1426 34.4303 39.61 34.4303 40.1547C34.4303 40.4344 34.3898 40.703 34.3089 40.9607C34.2352 41.2109 34.1212 41.4575 33.9666 41.7004C33.812 41.936 33.6206 42.1752 33.3925 42.4181C33.1643 42.661 32.8956 42.9149 32.5865 43.1799L30.6212 44.8581L30.1133 44.4275H34.4855V45.7414ZM36.523 45.8849C36.2801 45.8849 36.0703 45.8003 35.8937 45.631C35.717 45.4617 35.6287 45.2556 35.6287 45.0127C35.6287 44.7698 35.717 44.5637 35.8937 44.3944C36.0703 44.2177 36.2801 44.1294 36.523 44.1294C36.7659 44.1294 36.9757 44.2177 37.1523 44.3944C37.329 44.5637 37.4173 44.7698 37.4173 45.0127C37.4173 45.2556 37.329 45.4617 37.1523 45.631C36.9757 45.8003 36.7659 45.8849 36.523 45.8849ZM39.0777 38.9512H37.3111V37.6815H40.4247V45.7524H39.0777V38.9512ZM44.406 45.8849C43.8466 45.8849 43.3535 45.7745 42.9265 45.5537C42.507 45.3255 42.1794 45.009 41.9439 44.6042C41.7157 44.192 41.6016 43.7135 41.6016 43.1689H42.9928C42.9928 43.6252 43.1216 43.9822 43.3792 44.2398C43.6368 44.4974 43.9901 44.6263 44.4391 44.6263C44.7557 44.6263 45.028 44.5637 45.2562 44.4386C45.4917 44.3061 45.672 44.1184 45.7972 43.8755C45.9297 43.6326 45.9959 43.3492 45.9959 43.0253C45.9959 42.7162 45.9334 42.4438 45.8082 42.2083C45.6905 41.9654 45.5175 41.7777 45.2893 41.6452C45.0611 41.5127 44.7851 41.4465 44.4612 41.4465C44.1521 41.4465 43.865 41.5164 43.6 41.6562C43.3424 41.7887 43.14 41.9617 42.9928 42.1752L41.7452 41.9102L42.7388 37.6815H46.9454V38.9843H43.3903L43.865 38.5427L43.2136 41.1152L42.7388 41.314C42.9155 40.9754 43.1805 40.7178 43.5338 40.5411C43.8945 40.3571 44.2993 40.2651 44.7483 40.2651C45.2856 40.2651 45.753 40.3792 46.1505 40.6074C46.5553 40.8355 46.8681 41.152 47.089 41.5569C47.3171 41.9544 47.4312 42.4181 47.4312 42.948C47.4312 43.5295 47.3024 44.0411 47.0448 44.4827C46.7945 44.9244 46.4412 45.2703 45.9849 45.5206C45.5359 45.7635 45.0096 45.8849 44.406 45.8849ZM53.9956 41.7611L51.4617 44.974V44.1625L53.3497 41.7611H53.9956ZM51.5721 41.7611V45.7524H51.0311V41.7611H51.5721ZM52.2732 43.87L52.6265 43.4062L54.0177 45.7524H53.3883L52.2732 43.87ZM55.9434 42.2028C55.6564 42.2028 55.4098 42.269 55.2037 42.4015C54.9976 42.534 54.8393 42.718 54.7289 42.9536C54.6185 43.1891 54.5633 43.4651 54.5633 43.7816C54.5633 44.1018 54.6204 44.376 54.7345 44.6042C54.8522 44.8324 55.016 45.0072 55.2258 45.1286C55.4355 45.2464 55.6766 45.3053 55.949 45.3053C56.1219 45.3053 56.282 45.2832 56.4292 45.239C56.5764 45.1949 56.7053 45.1268 56.8157 45.0348C56.9261 44.9391 57.0126 44.8176 57.0751 44.6704C57.1414 44.5232 57.1745 44.3502 57.1745 44.1515V43.7761L57.4284 44.0356H55.8385V43.5553H57.6824V45.7579H57.2297L57.1745 45.0182L57.2463 45.1065C57.1874 45.239 57.0935 45.3586 56.9647 45.4654C56.8359 45.5721 56.6813 45.6586 56.501 45.7248C56.3207 45.7874 56.1219 45.8187 55.9048 45.8187C55.5294 45.8187 55.1982 45.734 54.9111 45.5647C54.624 45.3918 54.3995 45.1525 54.2376 44.8471C54.0757 44.5416 53.9947 44.1828 53.9947 43.7706C53.9947 43.3657 54.0757 43.0069 54.2376 42.6941C54.4032 42.3813 54.6332 42.1365 54.9277 41.9599C55.2221 41.7832 55.5644 41.6949 55.9545 41.6949C56.2452 41.6949 56.5102 41.7483 56.7494 41.855C56.9886 41.958 57.1855 42.1052 57.3401 42.2966C57.4984 42.4843 57.5977 42.707 57.6382 42.9646H57.0641C56.9905 42.7107 56.8506 42.5211 56.6445 42.396C56.4421 42.2672 56.2084 42.2028 55.9434 42.2028Z" fill="#F0EBFF"/>
<path d="M64.9351 3.63571C74.7417 3.63571 82.7172 11.6113 82.7173 21.4179C82.7173 31.2246 74.7417 39.2002 64.9351 39.2002C55.1315 39.2001 47.1528 31.2245 47.1528 21.4179C47.1529 11.6113 55.1285 3.63576 64.9351 3.63571Z" fill="#D4F7F2" stroke="#0A1F1F" stroke-width="0.304235"/>
<path d="M64.9353 2.11438C75.5968 2.1145 84.239 10.7566 84.239 21.4181C84.2389 32.0795 75.5967 40.7217 64.9353 40.7218C54.2738 40.7218 45.6317 32.0795 45.6316 21.4181C45.6316 10.7565 54.2737 2.11438 64.9353 2.11438ZM64.9353 4.85266C55.8003 4.85266 48.3699 12.2831 48.3699 21.4181C48.37 30.553 55.8004 37.9835 64.9353 37.9835C74.0701 37.9834 81.5006 30.5529 81.5007 21.4181C81.5007 12.2832 74.0702 4.85278 64.9353 4.85266Z" fill="#F4FFFF" stroke="#0A1F1F" stroke-width="0.304235"/>
<path d="M70.2897 16.249C68.9815 15.0198 67.2534 14.2684 65.358 14.2684C61.2691 14.2684 57.956 17.7488 57.956 22.0416C57.956 26.3343 61.2691 29.8117 65.358 29.8117C67.2534 29.8117 68.9845 29.0633 70.2897 27.8342M56.4744 24.372H63.8764M56.4744 19.7081H63.8764" stroke="#0A1F1F" stroke-width="2.66814" stroke-linecap="round" stroke-linejoin="round"/>
</svg>
