<svg width="48" height="32" viewBox="0 0 48 32" fill="none" xmlns="http://www.w3.org/2000/svg">
<rect width="48" height="32" rx="6" fill="#DC0032"/>
<g clip-path="url(#clip0_2786_40225)">
<path d="M12.546 8.03966L6.33432 11.428L13.2289 15.4379C13.2915 15.4743 13.3626 15.5473 13.3626 15.6259L13.362 21.5332C13.362 21.6158 13.289 21.6723 13.2807 21.6768L12.8697 21.906C12.8059 21.9417 12.7123 21.9451 12.6191 21.8935L12.2525 21.6904C12.1994 21.661 12.1533 21.5893 12.1533 21.5126V16.2859C12.1533 16.1939 12.0532 16.1501 11.9861 16.1111L6 12.6268V19.6158C6 19.7704 6.14848 19.947 6.27404 20.0211L12.4931 23.6895C12.6925 23.8071 12.8114 23.7876 13.0872 23.6498L19.2328 20.0224C19.3761 19.9377 19.5157 19.7799 19.5158 19.6053V12.6255L15.3931 15.035C15.3413 15.0653 15.2476 15.0766 15.1936 15.0454L14.8204 14.8297C14.7464 14.7869 14.679 14.7012 14.6773 14.6113L14.6692 14.1753C14.668 14.1098 14.7118 14.0243 14.7691 13.9909L19.1796 11.4234L12.9689 8.04059C12.9197 8.01379 12.8376 8.00001 12.7554 8.00001C12.6756 8.00001 12.5958 8.01303 12.546 8.03966Z" fill="white"/>
<path d="M27.8264 18.4885C27.7256 18.511 27.0589 18.5815 26.8104 18.5411C25.7976 18.3763 25.3101 17.8579 25.2996 16.9565C25.2883 15.9959 25.6881 15.2987 26.8745 15.2493C27.0757 15.2409 27.739 15.3586 27.8204 15.4344L27.8264 18.4885ZM29.3578 19.5994V11.3773H27.8204V14.0735C27.6773 13.9899 27.0486 13.877 26.5551 13.8907C24.9113 13.9364 23.6899 15.234 23.7233 16.8191C23.767 18.8921 24.9892 19.7617 26.9055 19.8832C27.8871 19.9454 29.0649 19.6467 29.3578 19.5994Z" fill="white"/>
<path d="M40.4689 18.4885C40.3682 18.511 39.7015 18.5816 39.4529 18.5411C38.4402 18.3763 37.9527 17.858 37.9421 16.9565C37.9309 15.9959 38.3307 15.2987 39.517 15.2493C39.7183 15.241 40.3816 15.3586 40.463 15.4344L40.4689 18.4885ZM42.0004 19.5994V11.3773H40.463V14.0735C40.3199 13.9899 39.6912 13.877 39.1977 13.8907C37.5539 13.9364 36.3325 15.234 36.3659 16.8191C36.4096 18.8921 37.6317 19.7618 39.5481 19.8832C40.5296 19.9454 41.7075 19.6467 42.0004 19.5994Z" fill="white"/>
<path d="M30.2207 14.3733V22.0942H31.7766L31.7707 15.3795C31.8714 15.3569 32.5332 15.2681 32.7846 15.2829C33.8104 15.3431 34.2771 15.9157 34.3009 16.8178C34.316 17.3943 34.1244 17.8726 33.7479 18.1709C33.4643 18.3957 33.0698 18.5124 32.6133 18.5254L32.616 19.8758C33.3326 19.8966 34.0576 19.7455 34.6322 19.3751C35.3771 18.8948 35.9064 17.8299 35.8771 16.8177C35.8243 14.9872 34.7933 13.9452 32.6955 13.9008C31.7121 13.8801 30.5191 14.224 30.2207 14.3733Z" fill="white"/>
</g>
<defs>
<clipPath id="clip0_2786_40225">
<rect width="36" height="15.7667" fill="white" transform="translate(6 8)"/>
</clipPath>
</defs>
</svg>
