<svg width="64" height="40" viewBox="0 0 64 40" fill="none" xmlns="http://www.w3.org/2000/svg">
<rect width="64" height="40" rx="6" fill="#002F6C"/>
<path d="M29.5434 17.5693H25.5051C25.4695 17.8539 24.3131 24.792 24.2598 25.0766H26.4657C26.5191 24.8098 26.8571 22.7106 26.8571 22.7106H28.476C30.3973 22.7106 31.6604 21.7499 31.945 20.0777C32.0873 19.206 31.7671 17.5693 29.5434 17.5693ZM28.2269 21.1451H27.1239L27.4442 19.2593H28.6895C29.1876 19.2593 30.0059 19.2593 29.8636 20.1666C29.6857 21.1451 28.7784 21.1451 28.2269 21.1451Z" fill="white"/>
<path d="M33.9552 17.5693C33.8662 17.7472 30.0592 24.6852 29.8457 25.0766H32.0339C32.1228 24.8987 32.5854 23.9559 32.5854 23.9559H35.3606C35.3606 23.9559 35.4851 24.8987 35.5207 25.0766H37.78C37.7089 24.6852 36.2501 17.7472 36.1967 17.5693H33.9552ZM33.2614 22.586L34.5422 19.9709L34.7735 19.544L35.1827 22.586H33.2614Z" fill="white"/>
<path d="M42.3159 20.4334C41.4087 20.22 40.6971 20.0421 40.7326 19.4728C40.8038 19.0636 41.2308 18.7968 41.889 18.7968C42.0669 18.7968 42.4227 18.8323 42.654 19.028C42.8674 19.1703 42.9564 19.3838 42.9208 19.6151H44.9844C45.1268 17.676 43.2766 17.3736 42.138 17.3736C40.6971 17.3736 38.9181 18.014 38.6156 19.8108C38.3844 21.2162 39.5941 21.5542 40.7682 21.8922L40.8928 21.9278C42.2092 22.3014 42.654 22.4437 42.565 22.9774C42.4583 23.6178 41.8178 23.8313 41.2485 23.8313C40.5488 23.8313 40.1456 23.6119 40.0388 23.1731C40.021 23.0486 40.021 22.9062 40.021 22.7461H37.8151C37.566 25.13 40.2523 25.2545 40.8038 25.2545C41.6399 25.2545 44.4329 25.0766 44.8243 22.7283C45.0378 21.3763 44.0238 20.896 42.992 20.6113L42.3159 20.4334Z" fill="white"/>
<path d="M46.4606 25.0766H48.6665C48.7199 24.792 49.645 19.2593 49.645 19.2593H51.9043C51.9399 19.0281 52.1533 17.8005 52.1889 17.5693H45.4465C45.411 17.8005 45.2153 19.0281 45.1797 19.2593H47.439C47.439 19.2593 46.5139 24.792 46.4606 25.0766Z" fill="white"/>
<path d="M56.2263 20.6113L55.5503 20.4334C54.643 20.22 53.9136 20.0421 53.967 19.4728C54.0382 19.0636 54.4651 18.7968 55.1234 18.7968C55.3013 18.7968 55.6571 18.8323 55.8883 19.028C56.1018 19.1703 56.1908 19.3838 56.1552 19.6151H58.2188C58.3611 17.676 56.511 17.3736 55.3724 17.3736C53.9314 17.3736 52.1524 18.014 51.85 19.8108C51.6187 21.2162 52.8285 21.5542 54.0026 21.8922L54.1271 21.9278C55.4436 22.3014 55.8883 22.4437 55.7994 22.9774C55.6926 23.6178 55.0522 23.8313 54.4829 23.8313C53.7713 23.8313 53.3681 23.6119 53.2732 23.1731C53.2376 23.0486 53.2376 22.9062 53.2554 22.7461H51.0495C50.8004 25.13 53.4867 25.2545 54.0382 25.2545C54.8743 25.2545 57.6495 25.0766 58.0409 22.7283C58.2722 21.3763 57.2582 20.896 56.2263 20.6113Z" fill="white"/>
<path d="M9.13772 15.8258C7.80348 17.9251 8.01696 22.8173 8.30159 23.1375C9.06656 24.0092 17.3567 24.6852 20.3988 23.6712C21.0392 23.3866 22.6225 17.6938 21.9287 17.2668C21.5551 17.0533 16.9475 19.7752 15.293 19.8997C13.8521 20.0243 12.2332 17.9428 10.045 17.4269C9.72479 17.3558 9.60026 17.0711 9.72479 16.8932C9.84932 16.6975 10.2763 16.5552 10.6677 16.7153C12.3399 17.4447 13.6386 18.9213 14.5637 18.9035C16.396 18.8679 20.1319 17.1601 22.16 16.6264C22.3023 16.5908 22.5158 16.5196 22.5335 16.6442C23.2451 20.2733 21.5195 24.0982 21.306 24.2939C21.1459 24.4184 20.2386 24.9699 14.1545 25.0054C12.7491 25.0232 8.79971 24.6852 7.55442 24.1337C7.26978 24.0092 7.10967 22.675 7.37652 20.3089C7.59 18.352 8.4795 15.3099 8.87088 15.2388C13.3006 14.4204 24.0101 14.8118 23.939 14.7584C22.6403 13.7266 8.26601 13.8156 7.91021 14.6161C5.9889 18.9035 5.70426 24.8631 6.23796 25.0944C9.22667 26.4286 21.6085 26.2507 22.3734 24.8098C22.836 23.9558 24.0279 18.5655 23.9567 15.897C17.0365 14.8474 9.38678 15.4345 9.13772 15.8258Z" fill="#FFA300"/>
<path d="M26.3929 14.7585L26.0549 16.7153H27.1401L27.0867 17.0534H25.6279L26.0193 14.7585H26.3929Z" fill="#FFA300"/>
<path d="M31.2857 14.7585L31.7126 17.0534H31.3212L31.2145 16.4485H30.3606L30.0582 17.0534H29.6846L30.8765 14.7585H31.2857ZM31.1789 16.1461L31.0366 15.1498H31.0188L30.5385 16.1461H31.1789Z" fill="#FFA300"/>
<path d="M36.6579 14.7585L36.6045 15.1143H35.9107L35.5905 17.0534H35.2169L35.5549 15.1143H34.8789L34.9323 14.7585H36.6579Z" fill="#FFA300"/>
<path d="M39.8777 14.7585L40.109 16.573L40.9629 14.7585H41.3365L40.2335 17.0534H39.8243L39.4863 14.7585H39.8777Z" fill="#FFA300"/>
<path d="M44.7708 14.7585L44.3794 17.0534H44.0059L44.3972 14.7585H44.7708Z" fill="#FFA300"/>
<path d="M48.0979 17.1067C47.6531 17.1067 47.5286 16.7865 47.5998 16.3773L47.6176 16.2528H47.9912L47.9734 16.3773C47.92 16.6264 47.9556 16.7865 48.1868 16.7865C48.4359 16.7865 48.5071 16.6264 48.5604 16.3418L48.8273 14.7585H49.2009L48.934 16.324C48.8807 16.7154 48.7205 17.1067 48.0979 17.1067Z" fill="#FFA300"/>
<path d="M53.4527 14.7585L53.8796 17.0534H53.4882L53.3815 16.4485H52.5454L52.2429 17.0534H51.8516L53.0613 14.7585H53.4527ZM53.3281 16.1461L53.1858 15.1498H53.168L52.6877 16.1461H53.3281Z" fill="#FFA300"/>
<path d="M57.758 16.7865C58.0782 16.7865 58.2383 16.6086 58.2561 16.4307C58.2917 16.2528 58.2205 16.1816 58.1316 16.1461C57.9893 16.0927 57.8114 16.0571 57.5267 15.9682C57.1887 15.8614 57.1176 15.6124 57.1532 15.3811C57.2421 14.9186 57.6691 14.7051 58.0426 14.7051C58.4874 14.7051 58.8254 14.9541 58.7365 15.4345H58.3629C58.3985 15.1498 58.2383 15.0431 57.9715 15.0431C57.8114 15.0431 57.5801 15.0965 57.5445 15.3277C57.509 15.4878 57.5979 15.5768 57.7402 15.6302C57.7758 15.6479 58.2206 15.7725 58.3273 15.8081C58.5941 15.897 58.6831 16.1461 58.6475 16.3951C58.5586 16.911 58.096 17.1067 57.6691 17.1067C57.1887 17.1067 56.8329 16.8577 56.9219 16.2884H57.2955C57.2421 16.6442 57.4556 16.7865 57.758 16.7865Z" fill="#FFA300"/>
</svg>
