<svg width="64" height="40" viewBox="0 0 64 40" fill="none" xmlns="http://www.w3.org/2000/svg">
<rect width="64" height="40" rx="6" fill="#260071"/>
<path fill-rule="evenodd" clip-rule="evenodd" d="M37.1711 26.7426C36.3593 27.5534 35.2805 27.9998 34.1325 27.9998C32.9848 27.9998 31.9055 27.5534 31.0938 26.7426L28.1317 23.7842L26.7161 22.37L25.3002 23.7842L22.3384 26.7426C21.5268 27.5534 20.4473 27.9998 19.2996 27.9998C18.1519 27.9998 17.0728 27.5534 16.2609 26.7426C15.4495 25.932 15.0024 24.8542 15.0024 23.7076C15.0024 22.5612 15.4495 21.4832 16.2609 20.6724L23.4224 13.5196L23.4625 13.4796L23.5003 13.4374C23.5618 13.3684 23.6175 13.3094 23.6697 13.257C24.4813 12.4464 25.5605 12 26.7091 12H26.7215H26.7239C27.8718 12 28.9509 12.4464 29.7628 13.2574C29.8151 13.3096 29.8702 13.3682 29.9312 13.4366L29.9693 13.4792L30.0097 13.5194L37.1713 20.6724C37.9828 21.4832 38.4298 22.5612 38.4298 23.7076C38.4298 24.8542 37.9828 25.932 37.1711 26.7426ZM43.3409 13.2572C42.5291 12.4466 41.4501 12 40.3023 12C39.1544 12 38.0753 12.4466 37.2636 13.2572L34.9213 15.5968L31.4256 12.1052C31.3459 12.016 31.264 11.9284 31.1783 11.8428C29.9484 10.6142 28.336 10 26.7239 10H26.7161H26.7083C25.0962 10 23.4839 10.614 22.2539 11.8428C22.1682 11.9284 22.0863 12.0162 22.0068 12.1052L14.8452 19.2582C12.3849 21.7156 12.3849 25.6996 14.8452 28.1568C16.0752 29.3856 17.6875 29.9998 19.2996 29.9998C20.9119 29.9998 22.5242 29.3856 23.7542 28.1568L26.7161 25.1984L29.6781 28.1568C30.9082 29.3856 32.5202 29.9998 34.1325 29.9998C35.7446 29.9998 37.3571 29.3856 38.5869 28.1568C40.1674 26.5784 40.7306 24.3702 40.2807 22.341L44.664 26.7192C45.4758 27.5298 46.5546 27.9762 47.7028 27.9762C48.8505 27.9762 49.9296 27.5298 50.7411 26.7192C51.5529 25.9084 52 24.8304 52 23.684C52 22.5376 51.5529 21.4596 50.7411 20.649L43.3409 13.2572Z" fill="#F9E0C0"/>
</svg>
