<svg width="45" height="26" viewBox="-3 -3 45 26" fill="none" xmlns="http://www.w3.org/2000/svg">
<path fill-rule="evenodd" clip-rule="evenodd" d="M24.1711 16.7426C23.3593 17.5534 22.2805 17.9998 21.1325 17.9998C19.9848 17.9998 18.9055 17.5534 18.0938 16.7426L15.1317 13.7842L13.7161 12.37L12.3002 13.7842L9.33836 16.7426C8.52681 17.5534 7.44735 17.9998 6.29961 17.9998C5.15187 17.9998 4.07281 17.5534 3.26086 16.7426C2.44951 15.932 2.00239 14.8542 2.00239 13.7076C2.00239 12.5612 2.44951 11.4832 3.26086 10.6724L10.4224 3.5196L10.4625 3.4796L10.5003 3.4374C10.5618 3.3684 10.6175 3.3094 10.6697 3.257C11.4813 2.4464 12.5605 2 13.7091 2H13.7215H13.7239C14.8718 2 15.9509 2.4464 16.7628 3.2574C16.8151 3.3096 16.8702 3.3682 16.9312 3.4366L16.9693 3.4792L17.0097 3.5194L24.1713 10.6724C24.9828 11.4832 25.4298 12.5612 25.4298 13.7076C25.4298 14.8542 24.9828 15.932 24.1711 16.7426ZM30.3409 3.2572C29.5291 2.4466 28.4501 2 27.3023 2C26.1544 2 25.0753 2.4466 24.2636 3.2572L21.9213 5.5968L18.4256 2.1052C18.3459 2.016 18.264 1.9284 18.1783 1.8428C16.9484 0.6142 15.336 0 13.7239 0H13.7161H13.7083C12.0962 0 10.4839 0.614 9.25386 1.8428C9.16816 1.9284 9.08626 2.0162 9.00677 2.1052L1.84521 9.2582C-0.615068 11.7156 -0.615068 15.6996 1.84521 18.1568C3.07524 19.3856 4.68752 19.9998 6.29961 19.9998C7.91189 19.9998 9.52417 19.3856 10.7542 18.1568L13.7161 15.1984L16.6781 18.1568C17.9082 19.3856 19.5202 19.9998 21.1325 19.9998C22.7446 19.9998 24.3571 19.3856 25.5869 18.1568C27.1674 16.5784 27.7306 14.3702 27.2807 12.341L31.664 16.7192C32.4758 17.5298 33.5546 17.9762 34.7028 17.9762C35.8505 17.9762 36.9296 17.5298 37.7411 16.7192C38.5529 15.9084 39 14.8304 39 13.684C39 12.5376 38.5529 11.4596 37.7411 10.649L30.3409 3.2572Z" fill="#260071"/>
</svg>