<svg width="40" height="40" viewBox="0 0 40 40" fill="none" xmlns="http://www.w3.org/2000/svg">
<rect width="40" height="40" rx="8" fill="#F0EBFF"/>
<path fill-rule="evenodd" clip-rule="evenodd" d="M22.8745 23.3031C22.375 23.8021 21.7111 24.0768 21.0046 24.0768C20.2983 24.0768 19.6342 23.8021 19.1346 23.3031L17.3118 21.4826L16.4407 20.6123L15.5694 21.4826L13.7467 23.3031C13.2473 23.8021 12.583 24.0768 11.8767 24.0768C11.1704 24.0768 10.5063 23.8021 10.0067 23.3031C9.50739 22.8043 9.23223 22.141 9.23223 21.4354C9.23223 20.7299 9.50739 20.0666 10.0067 19.5676L14.4138 15.1659L14.4384 15.1413L14.4617 15.1153C14.4996 15.0728 14.5338 15.0365 14.566 15.0043C15.0654 14.5054 15.7295 14.2307 16.4363 14.2307H16.444H16.4455C17.1519 14.2307 17.8159 14.5054 18.3156 15.0045C18.3477 15.0366 18.3816 15.0727 18.4192 15.1148L18.4426 15.141L18.4675 15.1658L22.8746 19.5676C23.374 20.0666 23.6491 20.7299 23.6491 21.4354C23.6491 22.141 23.374 22.8043 22.8745 23.3031ZM26.6713 15.0044C26.1718 14.5056 25.5077 14.2308 24.8014 14.2308C24.095 14.2308 23.431 14.5056 22.9314 15.0044L21.49 16.4442L19.3388 14.2955C19.2898 14.2406 19.2394 14.1867 19.1866 14.134C18.4298 13.378 17.4375 13 16.4455 13H16.4407H16.4359C15.4438 13 14.4516 13.3778 13.6947 14.134C13.6419 14.1867 13.5915 14.2407 13.5426 14.2955L9.13551 18.6974C7.6215 20.2096 7.6215 22.6613 9.13551 24.1734C9.89246 24.9296 10.8846 25.3076 11.8767 25.3076C12.8689 25.3076 13.861 24.9296 14.618 24.1734L16.4407 22.3529L18.2635 24.1734C19.0204 24.9296 20.0125 25.3076 21.0046 25.3076C21.9967 25.3076 22.989 24.9296 23.7458 24.1734C24.7184 23.2021 25.065 21.8432 24.7881 20.5945L27.4856 23.2887C27.9851 23.7876 28.649 24.0623 29.3556 24.0623C30.0619 24.0623 30.7259 23.7876 31.2253 23.2887C31.7248 22.7898 32 22.1264 32 21.4209C32 20.7154 31.7248 20.0521 31.2253 19.5532L26.6713 15.0044Z" fill="#260071"/>
</svg>
