<svg width="48" height="32" viewBox="0 0 48 32" fill="none" xmlns="http://www.w3.org/2000/svg">
<rect width="48" height="32" rx="6" fill="#FF6600"/>
<path d="M9.81681 14.2238C8.18601 14.2238 7 15.4099 7 16.9419C7 18.4738 8.18601 19.66 9.81681 19.66C11.4476 19.66 12.6337 18.4738 12.6337 16.9419C12.6337 15.4099 11.4476 14.2238 9.81681 14.2238ZM9.81681 18.6221C8.87788 18.6221 8.18601 17.9303 8.18601 16.9419C8.18601 15.9535 8.87788 15.2616 9.81681 15.2616C10.7558 15.2616 11.4476 15.9535 11.4476 16.9419C11.4476 17.9303 10.7558 18.6221 9.81681 18.6221ZM19.931 14.2238C18.5473 14.2238 18.1025 15.2616 18.1025 15.2616H18.0531C18.0531 15.2616 17.7072 14.2238 16.4223 14.2238C15.2857 14.2238 14.841 15.1628 14.841 15.1628H14.7915L14.7421 14.372H13.6549V19.5117H14.7915V16.7443C14.7915 15.8547 15.434 15.2616 16.1258 15.2616C16.7683 15.2616 17.1636 15.6076 17.1636 16.3983V19.5117H18.3003V16.7443C18.3003 15.8547 18.9426 15.2616 19.6345 15.2616C20.277 15.2616 20.6723 15.6076 20.6723 16.3983V19.5117H21.8089V16.3489C21.8089 15.0146 21.0677 14.2238 19.931 14.2238ZM26.109 14.2238C24.8735 14.2238 24.4288 15.1628 24.4288 15.1628H24.3794L24.3299 14.372H23.2427V19.5117H24.3794V16.7443C24.3794 15.9041 25.0712 15.2616 25.8619 15.2616C26.5537 15.2616 26.9985 15.657 26.9985 16.3983V19.5117H28.1351V16.3489C28.1351 15.0146 27.3444 14.2238 26.109 14.2238ZM29.5688 19.5117H30.7055V14.372H29.5688L29.5688 19.5117ZM30.1322 12C29.7665 12 29.47 12.247 29.47 12.6721C29.47 13.0872 29.7665 13.3343 30.1322 13.3343C30.5078 13.3343 30.8043 13.0872 30.8043 12.6721C30.8043 12.247 30.5078 12 30.1322 12ZM34.3626 17.8808H34.3132L32.7812 14.3721H31.5952L33.819 19.5117H34.8568L37.0806 14.3721H35.8946L34.3626 17.8808ZM39.7761 14.2238C38.4715 14.2238 37.7247 14.8706 37.7247 14.8706V15.9085H37.8729C37.8729 15.9085 38.4913 15.2616 39.6279 15.2616C40.4186 15.2616 40.8633 15.657 40.8633 16.3489V16.7936C40.8633 16.7936 40.3198 16.4477 39.3808 16.4477C38.1453 16.4477 37.4535 17.1395 37.4535 18.1082C37.4535 18.9681 38.1453 19.66 39.1831 19.66C40.468 19.66 40.8139 18.721 40.8139 18.721H40.8633L40.9128 19.5117H42V16.2994C42 15.0146 41.2093 14.2238 39.7761 14.2238ZM39.4302 18.6715C38.936 18.6715 38.6395 18.4245 38.6395 17.9798C38.6395 17.5349 38.9854 17.2384 39.5785 17.2384C40.468 17.2384 40.8633 17.5844 40.8633 17.5844C40.8633 17.5844 40.6163 18.6715 39.4302 18.6715Z" fill="white"/>
</svg>
