<svg width="259" height="78" viewBox="0 0 259 78" fill="none" xmlns="http://www.w3.org/2000/svg">
<path fill-rule="evenodd" clip-rule="evenodd" d="M208.422 157.59C202.301 163.659 194.165 167 185.508 167C176.852 167 168.713 163.659 162.592 157.59L140.254 135.447L129.579 124.861L118.901 135.447L96.5651 157.59C90.445 163.659 82.3046 167 73.6492 167C64.9938 167 56.8563 163.659 50.7332 157.59C44.6147 151.523 41.2428 143.456 41.2428 134.873C41.2428 126.293 44.6147 118.224 50.7332 112.155L104.74 58.617L105.042 58.3176L105.328 58.0017C105.791 57.4853 106.211 57.0437 106.605 56.6515C112.725 50.5842 120.864 47.2429 129.526 47.2429H129.619H129.637C138.294 47.2429 146.432 50.5842 152.555 56.6545C152.949 57.0452 153.364 57.4838 153.825 57.9957L154.112 58.3146L154.417 58.6155L208.424 112.155C214.544 118.224 217.914 126.293 217.914 134.873C217.914 143.456 214.544 151.523 208.422 157.59Z" stroke="#8779FF" stroke-width="1.18571"/>
<path fill-rule="evenodd" clip-rule="evenodd" d="M-78.5081 10.41C-72.3865 4.34121 -64.2506 0.999941 -55.5937 0.999941C-46.9383 0.999941 -38.7993 4.34121 -32.6777 10.41L-10.3401 32.5533L0.335675 43.1385L11.013 32.5533L33.3491 10.41C39.4692 4.34121 47.6096 0.999941 56.265 0.999941C64.9204 0.999941 73.0579 4.34121 79.181 10.41C85.2995 16.4773 88.6714 24.5445 88.6714 33.1267C88.6714 41.7074 85.2995 49.7761 79.181 55.8449L25.1739 109.383L24.8719 109.682L24.5865 109.998C24.1229 110.515 23.7031 110.956 23.309 111.349C17.1889 117.416 9.04995 120.757 0.388524 120.757H0.294904H0.276784C-8.38012 120.757 -16.5176 117.416 -22.6407 111.346C-23.0348 110.955 -23.45 110.516 -23.9106 110.004L-24.1975 109.685L-24.5025 109.385L-78.5096 55.8449C-84.6297 49.7761 -88 41.7074 -88 33.1267C-88 24.5445 -84.6297 16.4773 -78.5081 10.41Z" stroke="#8779FF" stroke-width="1.18571"/>
<path fill-rule="evenodd" clip-rule="evenodd" d="M179.977 10.41C186.099 4.34121 194.235 0.999941 202.892 0.999941C211.547 0.999941 219.686 4.34121 225.808 10.41L248.145 32.5533L258.821 43.1385L269.499 32.5533L291.835 10.41C297.955 4.34121 306.095 0.999941 314.751 0.999941C323.406 0.999941 331.543 4.34121 337.667 10.41C343.785 16.4773 347.157 24.5445 347.157 33.1267C347.157 41.7074 343.785 49.7761 337.667 55.8449L283.659 109.383L283.357 109.682L283.072 109.998C282.608 110.515 282.189 110.956 281.795 111.349C275.675 117.416 267.536 120.757 258.874 120.757H258.78H258.762C250.105 120.757 241.968 117.416 235.845 111.346C235.451 110.955 235.036 110.516 234.575 110.004L234.288 109.685L233.983 109.385L179.976 55.8449C173.856 49.7761 170.486 41.7074 170.486 33.1267C170.486 24.5445 173.856 16.4773 179.977 10.41Z" stroke="#8779FF" stroke-width="1.18571"/>
</svg>
