<svg width="48" height="32" fill="none" xmlns="http://www.w3.org/2000/svg"><rect width="48" height="32" rx="6" fill="#F6F8FC"/><g clip-path="url(#a)"><path d="M38.638 16.082a3.519 3.519 0 0 0-.652-.301c-.397-.138-.585-.241-.585-.466 0-.19.179-.32.43-.32.255 0 .512.093.72.3l.672-.724c-.396-.372-.818-.577-1.392-.577-.604 0-1.416.474-1.416 1.355 0 .296.102.537.26.732h1.963Zm1.501 0h1.036v-1.095h.949v-.907h-.949v-1.552H40.14v1.552h-.776v.907h.776v1.095Zm3.296-2.002H42.4v2h1.035v-2Zm-8.24 2.26c-.028.692-.519 1.188-1.205 1.188s-1.176-.496-1.206-1.188h-1.036a2.233 2.233 0 0 0 2.241 2.18c1.23 0 2.209-.967 2.243-2.18h-1.037Zm3.731 0h-2.032c.214.148.556.32.771.403.423.163.584.251.584.46 0 .203-.23.316-.506.316-.345 0-.587-.13-.829-.345l-.69.682c.405.405.81.664 1.518.664.761 0 1.544-.537 1.544-1.346a1.097 1.097 0 0 0-.36-.834Zm1.213 2.093h1.036V16.34H40.14v2.093Zm2.26 0h1.036V16.34H42.4v2.093ZM27.94 16.082c.059-.655.554-1.095 1.21-1.095a1.19 1.19 0 0 1 1.219 1.095h1.038c-.074-1.2-.972-2.088-2.17-2.088-.576 0-1.031.213-1.296.493h-.017v-.408h-1.036v2.001l1.052.002Zm2.434.258c-.028.692-.537 1.188-1.224 1.188-.687 0-1.192-.487-1.216-1.188h-1.047v4.079h1.036v-2.384h.017c.279.285.684.484 1.258.484 1.23 0 2.181-.927 2.212-2.18h-1.036Zm2.416-.258c.067-.643.544-1.095 1.2-1.095.654 0 1.132.452 1.198 1.095h1.039a2.233 2.233 0 0 0-2.238-2.088 2.233 2.233 0 0 0-2.238 2.088h1.04Zm9.454-2.606c.124.098.231.194.347.194.05 0 .09-.014.113-.032-.238-.072-.39-.276-.39-.455a.29.29 0 0 1 .302-.302c.113 0 .205.05.265.117.073-.285.237-.444.421-.444.17 0 .262.134.262.31 0 .234-.22.598-.472.74a.17.17 0 0 0 .142.064c.221 0 .425-.2.553-.354a.112.112 0 0 1 .088-.04c.056 0 .104.042.104.104a.117.117 0 0 1-.028.075c-.123.146-.382.43-.712.43a.37.37 0 0 1-.317-.163.456.456 0 0 1-.339.162c-.14 0-.291-.1-.419-.198-.064-.049-.122-.097-.169-.134-.048-.038-.081-.059-.098-.06-.081 0-.119-.05-.119-.108 0-.054.045-.106.119-.106a.33.33 0 0 1 .169.063c.056.04.116.088.178.137Zm.371-.38c-.057 0-.089.041-.089.097 0 .136.14.225.3.252a.289.289 0 0 0 .005-.05c0-.159-.098-.298-.216-.298Zm.661-.332c-.076 0-.229.126-.233.628.158-.123.309-.38.309-.532 0-.06-.019-.096-.076-.096Z" fill="#FF7D00"/><path d="M7.101 16.08c-.2-.118-.42-.21-.627-.285-.4-.14-.61-.244-.61-.47 0-.191.244-.321.453-.321.279 0 .575.113.784.321l.679-.731c-.4-.374-.853-.6-1.463-.6-.609 0-1.427.478-1.427 1.366 0 .29.095.527.247.72h1.964ZM9.53 16.08v-.172c0-.46.314-.914.915-.914.522 0 .827.4.827.914v.173h1.044v-.207c0-.444.322-.88.914-.88.522 0 .827.4.827.914v.173h1.044v-.242c0-1.175-.557-1.845-1.645-1.845-.784 0-1.27.444-1.445.67h-.018c-.225-.4-.67-.67-1.218-.67-.618 0-1.036.287-1.227.496H9.53v-.409H8.486v2h1.045ZM24.391 16.08h1.045v-1.086h.957v-.914h-.957v-1.566H24.39v1.566h-.784v.914h.784v1.087ZM21.845 16.08c.022-.455.323-1.042 1.043-1.042h.304v-1.044c-.723 0-1.14.27-1.332.54h-.018v-.453h-1.044v2h1.047ZM16.695 16.08c.075-.638.553-1.086 1.208-1.086.655 0 1.126.448 1.2 1.087h1.063v-2h-1.044v.391h-.018a1.975 1.975 0 0 0-1.288-.479c-1.203 0-2.089.917-2.17 2.088h1.05ZM7.442 16.339H5.398c.225.176.496.3.753.388.374.122.592.226.592.461 0 .175-.26.322-.514.322-.348 0-.591-.13-.835-.348l-.697.687c.409.409.819.67 1.532.67.662 0 1.558-.479 1.558-1.357a1.11 1.11 0 0 0-.345-.823ZM21.843 16.339H20.8v2.093h1.044V16.34ZM25.436 16.339h-1.044v2.093h1.044V16.34ZM9.53 16.339H8.487v2.093h1.045V16.34ZM19.11 16.339c-.036.688-.52 1.18-1.207 1.18-.686 0-1.179-.492-1.215-1.18h-1.046c.039 1.215.939 2.18 2.174 2.18.505 0 .931-.182 1.288-.47h.018v.383h1.044V16.34h-1.057ZM12.316 16.339H11.27v2.093h1.045V16.34ZM15.101 16.339h-1.044v2.093H15.1V16.34Z" fill="#005DC0"/></g><defs><clipPath id="a"><path fill="#fff" transform="translate(4 12)" d="M0 0h40.677v8.932H0z"/></clipPath></defs></svg>