<svg width="48" height="32" viewBox="0 0 48 32" fill="none" xmlns="http://www.w3.org/2000/svg">
<rect width="48" height="32" rx="6" fill="#9339F2"/>
<g clip-path="url(#clip0_3535_657)">
<path d="M23.6332 16.3464V18.4072H21.9891V16.585C21.9891 16.0119 21.7882 15.751 21.3342 15.751C20.8652 15.751 20.6197 16.0418 20.6197 16.6069V18.4073H18.9834V14.6873H20.1519L20.5755 15.4463C20.8652 14.8732 21.3787 14.5755 22.0782 14.5755C23.0978 14.5755 23.6332 15.1859 23.6332 16.3464Z" fill="white"/>
<path d="M24.3018 13.025H25.9832V14.2258H24.3018V13.025ZM24.3242 14.6871H25.9613V18.4076H24.3242V14.6871Z" fill="white"/>
<path d="M29.7479 14.5757C29.1447 14.5757 28.6252 14.7989 28.3125 15.2444V15.247L28.3115 15.2453L27.9998 14.6875H26.7197V19.6082H28.356V17.9539C28.6984 18.3261 29.1147 18.5188 29.6955 18.5188C30.8114 18.5188 31.5632 17.7383 31.5632 16.5175C31.5635 15.3502 30.8412 14.5757 29.7479 14.5757ZM29.1079 17.492C28.6311 17.492 28.3265 17.1429 28.3265 16.6066V16.473C28.3265 15.9002 28.6162 15.5947 29.1001 15.5947C29.5915 15.5947 29.8669 15.9299 29.8669 16.5175C29.867 17.1202 29.5838 17.492 29.1079 17.492Z" fill="white"/>
<path d="M34.2105 14.5739C32.8994 14.5739 32.015 15.0812 31.9118 15.9586H33.5762C33.6131 15.6689 33.8305 15.5116 34.2006 15.5116C34.5437 15.5116 34.7542 15.6486 34.7542 15.9385V16.0781L33.4365 16.2058C32.8323 16.2722 32.4456 16.3822 32.1923 16.569C31.9324 16.7559 31.8057 17.0231 31.8057 17.3735C31.8057 18.0804 32.3791 18.5172 33.3329 18.5172C34.0442 18.5172 34.6225 18.2535 34.8251 17.8326V17.829L34.8261 17.8308C34.827 17.8299 34.827 17.8281 34.8277 17.8272V17.8343L35.1475 18.407H36.4056V16.1989C36.4053 15.0976 35.7417 14.5739 34.2105 14.5739ZM34.7908 17.0031C34.7908 17.3604 34.4704 17.603 33.9936 17.603C33.6732 17.603 33.4734 17.4631 33.4734 17.2398C33.4734 17.0231 33.6602 16.8967 34.0769 16.8363L34.7908 16.7559V17.0031Z" fill="white"/>
<path d="M39.2453 16.9581L38.6553 17.4923V18.4076H37.0186V13.0134H38.6553V15.9895L39.9129 14.6871H41.8772L40.5176 15.986L41.9072 18.4076H40.0988L39.2453 16.9581Z" fill="white"/>
<path d="M13.3382 13.0251V18.4077H10.2643L7.15332 13.0251H8.9974L11.6744 17.6863V13.0251H13.3382Z" fill="white"/>
<path d="M18.5169 16.5751C18.5169 15.331 17.7364 14.5643 16.3209 14.522C16.28 14.5205 16.2372 14.5199 16.1945 14.5199C16.0642 14.5199 15.9341 14.5268 15.8146 14.5433C14.6 14.6664 13.8359 15.4044 13.8359 16.5081C13.8359 17.7356 14.9695 18.4629 16.2782 18.4629C16.8471 18.4629 17.3858 18.3947 18.0037 17.9209C18.0608 17.8776 18.1191 17.8301 18.1777 17.7789L17.5963 16.8286C17.5553 16.8761 17.5096 16.9264 17.4582 16.9774C17.2364 17.1962 16.9111 17.419 16.4284 17.419C15.9079 17.419 15.4443 17.1078 15.3842 16.7374H18.517L18.5169 16.5751ZM15.384 15.956C15.4208 15.5555 15.6977 15.3839 16.1717 15.3839C16.6422 15.3839 16.9253 15.606 16.9253 15.956H15.384Z" fill="white"/>
</g>
<defs>
<clipPath id="clip0_3535_657">
<rect width="35" height="6.62163" fill="white" transform="translate(7 13)"/>
</clipPath>
</defs>
</svg>
