<svg width="40" height="40" viewBox="0 0 40 40" fill="none" xmlns="http://www.w3.org/2000/svg">
<rect width="40" height="40" rx="8" fill="#873EFF"/>
<g transform="scale(1.25)">
<g clip-path="url(#clip0_1316_576)">
<path fill-rule="evenodd" clip-rule="evenodd" d="M14.4931 13C13.9102 13 13.5306 13.1898 13.1916 13.827L11.6461 16.7417V14.1523C11.6461 13.3796 11.2801 13 10.6023 13C9.9244 13 9.63971 13.2305 9.30078 13.8812L7.83663 16.7417V14.1795C7.83663 13.3525 7.4977 13 6.67073 13H4.98966C4.35248 13 4 13.2983 4 13.8405C4 14.3828 4.33892 14.7082 4.96255 14.7082H5.65395V17.9754C5.65395 18.8973 6.27757 19.4396 7.17233 19.4396C8.0671 19.4396 8.4738 19.0871 8.92119 18.2601L9.89729 16.4299V17.9754C9.89729 18.8837 10.4938 19.4396 11.4021 19.4396C12.3104 19.4396 12.6494 19.1278 13.1645 18.2601L15.415 14.4642C15.903 13.6372 15.5641 13 14.4795 13C14.4795 13 14.4795 13 14.4931 13Z" fill="white"/>
<path fill-rule="evenodd" clip-rule="evenodd" d="M18.7225 13C16.8788 13 15.4824 14.3693 15.4824 16.2266C15.4824 18.0839 16.8923 19.4396 18.7225 19.4396C20.5527 19.4396 21.9491 18.0703 21.9627 16.2266C21.9627 14.3693 20.5527 13 18.7225 13ZM18.7225 17.4602C18.0311 17.4602 17.5566 16.9451 17.5566 16.2266C17.5566 15.508 18.0311 14.9793 18.7225 14.9793C19.4139 14.9793 19.8884 15.508 19.8884 16.2266C19.8884 16.9451 19.4275 17.4602 18.7225 17.4602Z" fill="white"/>
<path fill-rule="evenodd" clip-rule="evenodd" d="M25.6503 13C23.8201 13 22.4102 14.3693 22.4102 16.2266C22.4102 18.0839 23.8201 19.4396 25.6503 19.4396C27.4805 19.4396 28.8904 18.0703 28.8904 16.2266C28.8904 14.3828 27.4805 13 25.6503 13ZM25.6503 17.4602C24.9453 17.4602 24.4979 16.9451 24.4979 16.2266C24.4979 15.508 24.9589 14.9793 25.6503 14.9793C26.3417 14.9793 26.8162 15.508 26.8162 16.2266C26.8162 16.9451 26.3552 17.4602 25.6503 17.4602Z" fill="white"/>
</g>
</g>
<defs>
<clipPath id="clip0_1316_576">
<rect width="24.8906" height="6.43957" fill="white" transform="translate(4 13)"/>
</clipPath>
</defs>
</svg>
